<svg width="64" height="64" fill="none" xmlns="http://www.w3.org/2000/svg"><rect width="64" height="64" rx="32" fill="#F5F8FF"/><path d="M41 32h-3v-9c0-.35-.18-.67-.47-.85-.3-.18-.66-.2-.97-.04l-3.48 1.74-2.52-1.68c-.34-.22-.77-.22-1.11 0l-2.52 1.68-3.48-1.74c-.31-.16-.68-.14-.98.04-.29.18-.47.5-.47.85v16c0 1.65 1.35 3 3 3h14c1.65 0 3-1.35 3-3v-6c0-.55-.45-1-1-1zm-17 7V24.62l2.55 1.28c.32.16.7.14 1-.06L30 24.2l2.45 1.63c.3.2.68.22 1 .06L36 24.62V39c0 .35.07.69.18 1H25c-.55 0-1-.45-1-1zm16 0c0 .55-.45 1-1 1s-1-.45-1-1v-5h2v5zm-9-9h-2c-.55 0-1-.45-1-1s.45-1 1-1h2c.55 0 1 .45 1 1s-.45 1-1 1zm2 4h-6c-.55 0-1-.45-1-1s.45-1 1-1h6c.55 0 1 .45 1 1s-.45 1-1 1zm0 4h-6c-.55 0-1-.45-1-1s.45-1 1-1h6c.55 0 1 .45 1 1s-.45 1-1 1z" fill="#FF5762"/></svg>