<svg width="48" height="48" fill="none" xmlns="http://www.w3.org/2000/svg"><path fill-rule="evenodd" clip-rule="evenodd" d="M8 10a6 6 0 016-6h20a6 6 0 016 6v28a6 6 0 01-6 6H14a6 6 0 01-6-6V10zm6-2a2 2 0 00-2 2v28a2 2 0 002 2h20a2 2 0 002-2V10a2 2 0 00-2-2H14z" fill="#FF5762"/><path d="M16 28a2 2 0 114 0 2 2 0 01-4 0zm0 6a2 2 0 114 0 2 2 0 01-4 0zm6-6a2 2 0 114 0 2 2 0 01-4 0zm0 6a2 2 0 114 0 2 2 0 01-4 0zm6-6a2 2 0 114 0 2 2 0 01-4 0zm0 6a2 2 0 114 0 2 2 0 01-4 0zM16 14a2 2 0 012-2h12a2 2 0 012 2v2a2 2 0 01-2 2H18a2 2 0 01-2-2v-2z" fill="#FF5762"/></svg>