<svg width="18" height="19" fill="none" xmlns="http://www.w3.org/2000/svg"><path fill-rule="evenodd" clip-rule="evenodd" d="M2.25.26h13.5A2.25 2.25 0 0118 2.51v13.5a2.25 2.25 0 01-2.25 2.25H2.25A2.25 2.25 0 010 16.01V2.51A2.25 2.25 0 012.25.26zm1.424 1.907c-1.031 0-1.705.678-1.705 1.567 0 .87.653 1.567 1.665 1.567h.02c1.051 0 1.705-.697 1.705-1.567-.02-.889-.654-1.567-1.685-1.567zM5.161 6.54H2.146v9.069h3.015V6.54zm4.683 1.284c.4-.618 1.117-1.497 2.716-1.497 1.984 0 3.471 1.296 3.471 4.081v5.201h-3.014v-4.852c0-1.219-.437-2.05-1.527-2.05-.833 0-1.33.56-1.547 1.101-.08.194-.1.465-.1.736v5.065H6.83s.04-8.218 0-9.069h3.014v1.284z" fill="#AFB3C0"/></svg>