<svg width="32" height="14" fill="none" xmlns="http://www.w3.org/2000/svg"><g clip-path="url(#clip0_1027_31330)"><path d="M5.833 2.353c-.352.423-.914.757-1.477.71-.07-.572.205-1.18.527-1.555.352-.435.967-.745 1.465-.769.059.596-.17 1.18-.515 1.615zm.51.823c-.815-.048-1.512.47-1.899.47-.393 0-.984-.447-1.629-.435-.838.012-1.617.495-2.045 1.263-.879 1.537-.228 3.813.621 5.064.416.62.914 1.298 1.57 1.274.622-.023.868-.41 1.618-.41.756 0 .972.41 1.629.399.68-.012 1.107-.62 1.523-1.24.475-.702.668-1.387.68-1.423-.012-.012-1.313-.518-1.324-2.043-.012-1.275 1.025-1.883 1.072-1.919-.586-.881-1.5-.977-1.817-1zm4.705-1.728v9.287h1.418V7.56h1.963c1.792 0 3.052-1.251 3.052-3.062 0-1.81-1.236-3.05-3.006-3.05h-3.427zm1.418 1.215H14.1c1.23 0 1.934.667 1.934 1.841s-.703 1.847-1.94 1.847h-1.628V2.663zm7.605 8.144c.89 0 1.717-.46 2.092-1.186h.03v1.114h1.312V6.112c0-1.34-1.055-2.204-2.678-2.204-1.506 0-2.62.876-2.66 2.08h1.277c.106-.573.627-.948 1.342-.948.867 0 1.353.411 1.353 1.168v.512l-1.77.107c-1.646.102-2.536.787-2.536 1.978 0 1.203.92 2.002 2.238 2.002zm.38-1.102c-.755 0-1.235-.37-1.235-.936 0-.584.462-.923 1.347-.977l1.576-.101v.524c0 .87-.726 1.49-1.687 1.49zm4.806 3.556c1.383 0 2.033-.536 2.601-2.162l2.49-7.101h-1.44l-1.67 5.486h-.03l-1.67-5.486h-1.483l2.403 6.76-.13.412c-.216.697-.567.965-1.194.965-.112 0-.329-.012-.416-.024v1.114c.082.024.433.036.539.036z" fill="#fff"/></g><defs><clipPath id="clip0_1027_31330"><path fill="#fff" transform="translate(.348 .74)" d="M0 0h31.304v12.522H0z"/></clipPath></defs></svg>