<svg width="108" height="24" fill="none" xmlns="http://www.w3.org/2000/svg"><path fill-rule="evenodd" clip-rule="evenodd" d="M1.075.5a.575.575 0 00-.575.575v3.452c0 .318.258.575.575.575h13.933c.264 0 .494-.18.558-.436l.863-3.451A.575.575 0 0015.87.5H1.075zm3.452 23.01H1.075a.575.575 0 01-.575-.575V10.28c0-.318.258-.576.575-.576H13.57c.374 0 .649.352.558.715l-.863 3.452a.575.575 0 01-.558.435h-7.03a.575.575 0 00-.575.576v8.054a.575.575 0 01-.575.575zM25.236.5c.318 0 .576.258.576.575v21.86a.575.575 0 01-.576.576h-3.451a.575.575 0 01-.575-.575V1.076c0-.318.257-.576.575-.576h3.451z" fill="#FF5762"/><path d="M48.673.5h2.602a1 1 0 011 1v21.01a1 1 0 01-1 1H49.83a2 2 0 01-1.552-.738L38.206 10.376a.5.5 0 00-.888.315v11.82a1 1 0 01-1 1h-2.602a1 1 0 01-1-1V1.5a1 1 0 011-1h1.444a2 2 0 011.552.739l10.072 12.397a.5.5 0 00.889-.315V1.5a1 1 0 011-1zm31.214 11.505c0 6.355-5.151 11.506-11.505 11.506-6.355 0-11.506-5.151-11.506-11.506C56.876 5.651 62.028.5 68.382.5s11.505 5.151 11.505 11.505zm-18.433 0a6.928 6.928 0 1013.856 0 6.928 6.928 0 00-13.856 0zM106.5 23.51h-2.602a1 1 0 01-1-1V11.147a.5.5 0 00-.899-.302L97.19 17.19a1.5 1.5 0 01-2.39 0l-4.81-6.345a.5.5 0 00-.899.302V22.51a1 1 0 01-1 1H85.49a1 1 0 01-1-1v-21a1 1 0 01.996-1l1.939-.009a1 1 0 01.801.396l7.371 9.725a.5.5 0 00.797 0L103.748.92a1 1 0 01.797-.396h1.955a1 1 0 011 1v20.988a1 1 0 01-1 1z" fill="#FF5762"/></svg>