<svg width="138" height="41" fill="none" xmlns="http://www.w3.org/2000/svg"><g clip-path="url(#clip0_994_31447)"><path d="M132.889 40.26H5.111c-2.862 0-5.111-2.3-5.111-5v-30c0-2.8 2.351-5 5.111-5H132.89c2.862 0 5.111 2.3 5.111 5v30c0 2.7-2.249 5-5.111 5z" fill="#000"/><path d="M132.889 1.06c2.351 0 4.293 1.9 4.293 4.2v30c0 2.3-1.942 4.2-4.293 4.2H5.111c-2.351 0-4.293-1.9-4.293-4.2v-30c0-2.3 1.942-4.2 4.293-4.2H132.89zm0-.8H5.111C2.25.26 0 2.56 0 5.26v30c0 2.8 2.351 5 5.111 5H132.89c2.862 0 5.111-2.3 5.111-5v-30c0-2.7-2.249-5-5.111-5z" fill="#A6A6A6"/><path d="M48.453 10.46c0 .8-.204 1.5-.715 2-.614.6-1.33.9-2.25.9-.92 0-1.635-.3-2.248-.9-.613-.6-.92-1.3-.92-2.2 0-.9.307-1.6.92-2.2.613-.6 1.329-.9 2.249-.9.409 0 .818.1 1.227.3.408.2.715.4.92.7l-.512.5c-.408-.5-.92-.7-1.635-.7-.613 0-1.227.2-1.636.7-.51.4-.715 1-.715 1.7s.204 1.3.715 1.7c.511.4 1.023.7 1.636.7.715 0 1.227-.2 1.738-.7.306-.3.51-.7.51-1.2H45.49v-.7h2.964v.3zm4.703-2.5h-2.76v1.9h2.555v.7h-2.555v1.9h2.76v.8h-3.578v-6h3.578v.7zm3.373 5.3h-.818v-5.3h-1.738v-.7h4.294v.7h-1.738v5.3zm4.702 0v-6h.818v6h-.818zm4.294 0h-.818v-5.3h-1.738v-.7h4.191v.7h-1.738v5.3h.103zm9.711-.8c-.614.6-1.33.9-2.25.9-.92 0-1.635-.3-2.248-.9-.614-.6-.92-1.3-.92-2.2 0-.9.306-1.6.92-2.2.613-.6 1.329-.9 2.249-.9.92 0 1.635.3 2.249.9.613.6.92 1.3.92 2.2 0 .9-.307 1.6-.92 2.2zm-3.885-.5c.409.4 1.022.7 1.636.7.613 0 1.226-.2 1.635-.7.41-.4.716-1 .716-1.7s-.205-1.3-.716-1.7c-.409-.4-1.022-.7-1.635-.7-.614 0-1.227.2-1.636.7-.409.4-.715 1-.715 1.7s.204 1.3.715 1.7zm5.929 1.3v-6h.92l2.964 4.7v-4.7h.818v6h-.818l-3.168-4.9v4.9h-.716z" fill="#fff" stroke="#fff" stroke-width=".2" stroke-miterlimit="10"/><path d="M69.613 22.06c-2.453 0-4.395 1.8-4.395 4.3 0 2.4 1.942 4.3 4.395 4.3 2.454 0 4.396-1.8 4.396-4.3 0-2.6-1.942-4.3-4.396-4.3zm0 6.8c-1.329 0-2.453-1.1-2.453-2.6s1.124-2.6 2.453-2.6c1.33 0 2.454 1 2.454 2.6 0 1.5-1.125 2.6-2.454 2.6zm-9.506-6.8c-2.454 0-4.396 1.8-4.396 4.3 0 2.4 1.942 4.3 4.396 4.3 2.453 0 4.395-1.8 4.395-4.3 0-2.6-1.942-4.3-4.395-4.3zm0 6.8c-1.33 0-2.454-1.1-2.454-2.6s1.125-2.6 2.454-2.6c1.329 0 2.453 1 2.453 2.6 0 1.5-1.124 2.6-2.453 2.6zm-11.347-5.5v1.8h4.396c-.103 1-.512 1.8-1.023 2.3-.613.6-1.635 1.3-3.373 1.3-2.76 0-4.804-2.1-4.804-4.8 0-2.7 2.146-4.8 4.804-4.8 1.431 0 2.556.6 3.373 1.3l1.33-1.3c-1.125-1-2.556-1.8-4.6-1.8-3.68 0-6.85 3-6.85 6.6 0 3.6 3.17 6.6 6.85 6.6 2.044 0 3.475-.6 4.701-1.9 1.227-1.2 1.636-2.9 1.636-4.2 0-.4 0-.8-.102-1.1H48.76zm46.409 1.4c-.409-1-1.431-2.7-3.68-2.7s-4.089 1.7-4.089 4.3c0 2.4 1.84 4.3 4.293 4.3 1.942 0 3.17-1.2 3.578-1.9l-1.431-1c-.511.7-1.124 1.2-2.147 1.2-1.022 0-1.635-.4-2.146-1.3l5.826-2.4-.204-.5zm-5.929 1.4c0-1.6 1.329-2.5 2.249-2.5.715 0 1.431.4 1.635.9l-3.884 1.6zm-4.804 4.1h1.942v-12.5h-1.942v12.5zm-3.067-7.3c-.511-.5-1.329-1-2.351-1-2.147 0-4.191 1.9-4.191 4.3s1.942 4.2 4.19 4.2c1.023 0 1.84-.5 2.25-1h.102v.6c0 1.6-.92 2.5-2.351 2.5-1.125 0-1.942-.8-2.147-1.5l-1.635.7c.51 1.1 1.737 2.5 3.884 2.5 2.249 0 4.089-1.3 4.089-4.4v-7.6h-1.84v.7zm-2.249 5.9c-1.329 0-2.453-1.1-2.453-2.6s1.124-2.6 2.453-2.6c1.329 0 2.351 1.1 2.351 2.6s-1.022 2.6-2.351 2.6zm24.942-11.1h-4.6v12.5h1.942v-4.7h2.658c2.147 0 4.191-1.5 4.191-3.9s-2.044-3.9-4.191-3.9zm.102 6h-2.76v-4.3h2.76c1.432 0 2.249 1.2 2.249 2.1-.102 1.1-.92 2.2-2.249 2.2zm11.756-1.8c-1.431 0-2.862.6-3.373 1.9l1.737.7c.409-.7 1.023-.9 1.738-.9 1.022 0 1.942.6 2.045 1.6v.1c-.307-.2-1.125-.5-1.943-.5-1.84 0-3.68 1-3.68 2.8 0 1.7 1.534 2.8 3.169 2.8 1.329 0 1.943-.6 2.454-1.2h.102v1h1.84v-4.8c-.205-2.2-1.942-3.5-4.089-3.5zm-.204 6.9c-.614 0-1.534-.3-1.534-1.1 0-1 1.125-1.3 2.045-1.3.817 0 1.226.2 1.737.4-.204 1.2-1.226 2-2.248 2zm10.733-6.6l-2.147 5.4h-.102l-2.249-5.4h-2.044l3.373 7.6-1.942 4.2h1.942l5.213-11.8h-2.044zm-17.173 8h1.942v-12.5h-1.942v12.5z" fill="#fff"/><path d="M10.631 7.76c-.307.3-.511.8-.511 1.4v22.1c0 .6.204 1.1.511 1.4l.102.1 12.676-12.4v-.2L10.63 7.76z" fill="url(#paint0_linear_994_31447)"/><path d="M27.6 24.56l-4.191-4.1v-.3l4.191-4.1.102.1 5.01 2.8c1.43.8 1.43 2.1 0 2.9l-5.112 2.7z" fill="url(#paint1_linear_994_31447)"/><path d="M27.702 24.46l-4.293-4.2-12.778 12.5c.511.5 1.227.5 2.147.1l14.924-8.4z" fill="url(#paint2_linear_994_31447)"/><path d="M27.702 16.06l-14.924-8.3c-.92-.5-1.636-.4-2.147.1l12.778 12.4 4.293-4.2z" fill="url(#paint3_linear_994_31447)"/><path opacity=".2" d="M27.6 24.36l-14.822 8.2c-.818.5-1.534.4-2.045 0l-.102.1.102.1c.511.4 1.227.5 2.045 0l14.822-8.4z" fill="#000"/><path opacity=".12" d="M10.63 32.56c-.307-.3-.409-.8-.409-1.4v.1c0 .6.205 1.1.511 1.4v-.1h-.102zm22.081-11l-5.111 2.8.102.1 5.01-2.8c.715-.4 1.021-.9 1.021-1.4 0 .5-.408.9-1.022 1.3z" fill="#000"/><path opacity=".25" d="M12.777 7.86l19.933 11.1c.614.4 1.022.8 1.022 1.3 0-.5-.306-1-1.022-1.4L12.777 7.76c-1.431-.8-2.556-.1-2.556 1.5v.1c0-1.6 1.125-2.3 2.556-1.5z" fill="#fff"/></g><defs><linearGradient id="paint0_linear_994_31447" x1="22.284" y1="8.969" x2="5.506" y2="26.12" gradientUnits="userSpaceOnUse"><stop stop-color="#00A0FF"/><stop offset=".007" stop-color="#00A1FF"/><stop offset=".26" stop-color="#00BEFF"/><stop offset=".512" stop-color="#00D2FF"/><stop offset=".76" stop-color="#00DFFF"/><stop offset="1" stop-color="#00E3FF"/></linearGradient><linearGradient id="paint1_linear_994_31447" x1="34.586" y1="20.261" x2="9.852" y2="20.261" gradientUnits="userSpaceOnUse"><stop stop-color="#FFE000"/><stop offset=".409" stop-color="#FFBD00"/><stop offset=".775" stop-color="orange"/><stop offset="1" stop-color="#FF9C00"/></linearGradient><linearGradient id="paint2_linear_994_31447" x1="25.379" y1="22.555" x2="2.626" y2="45.814" gradientUnits="userSpaceOnUse"><stop stop-color="#FF3A44"/><stop offset="1" stop-color="#C31162"/></linearGradient><linearGradient id="paint3_linear_994_31447" x1="7.459" y1=".435" x2="17.62" y2="10.821" gradientUnits="userSpaceOnUse"><stop stop-color="#32A071"/><stop offset=".069" stop-color="#2DA771"/><stop offset=".476" stop-color="#15CF74"/><stop offset=".801" stop-color="#06E775"/><stop offset="1" stop-color="#00F076"/></linearGradient><clipPath id="clip0_994_31447"><path fill="#fff" transform="translate(0 .26)" d="M0 0h138v40H0z"/></clipPath></defs></svg>