<svg width="135" height="41" fill="none" xmlns="http://www.w3.org/2000/svg"><path d="M125.444.26H8.464c-.307.002-.612.008-.922.013-.673.008-1.345.067-2.01.177a6.697 6.697 0 00-1.906.627 6.455 6.455 0 00-2.804 2.8A6.588 6.588 0 00.195 5.78a12.957 12.957 0 00-.18 2.002c-.01.306-.01.614-.015.92v23.115c.005.31.006.611.015.922.008.67.068 1.34.18 2.002.11.663.322 1.305.627 1.904a6.21 6.21 0 001.181 1.614 6.291 6.291 0 001.623 1.179c.6.304 1.243.517 1.907.63.664.11 1.336.169 2.01.178.31.006.614.01.92.01.367.002.73.002 1.098.002h115.883c.36 0 .727 0 1.087-.002.306 0 .619-.004.924-.01a13.352 13.352 0 002.006-.177 6.84 6.84 0 001.914-.631 6.282 6.282 0 001.621-1.179 6.37 6.37 0 001.185-1.614c.303-.6.512-1.242.621-1.904a13.44 13.44 0 00.186-2.002c.004-.31.004-.612.004-.922.008-.363.008-.725.008-1.094V9.795c0-.366 0-.73-.008-1.091 0-.307 0-.615-.004-.921a13.437 13.437 0 00-.186-2.002 6.59 6.59 0 00-.621-1.904 6.474 6.474 0 00-2.806-2.8 6.798 6.798 0 00-1.914-.626c-.663-.11-1.333-.17-2.006-.177-.305-.005-.618-.01-.924-.013-.36-.002-.727-.002-1.087-.002z" fill="#A6A6A6"/><path d="M8.469 39.384c-.306 0-.604-.004-.907-.01a12.767 12.767 0 01-1.875-.163 5.915 5.915 0 01-1.661-.548 5.422 5.422 0 01-1.401-1.017 5.322 5.322 0 01-1.023-1.397 5.71 5.71 0 01-.545-1.657 12.38 12.38 0 01-.167-1.875 90.92 90.92 0 01-.015-.913v-23.1s.01-.692.015-.895c.008-.627.063-1.253.166-1.872.096-.578.28-1.139.545-1.662a5.58 5.58 0 012.424-2.42 5.85 5.85 0 011.658-.544 12.615 12.615 0 011.881-.165l.905-.012h118.057l.916.013c.624.007 1.247.062 1.863.163a5.964 5.964 0 011.676.547 5.6 5.6 0 012.422 2.42 5.75 5.75 0 01.536 1.65c.105.623.163 1.254.175 1.886.003.284.003.588.003.89.008.376.008.733.008 1.092v20.93c0 .362 0 .717-.008 1.074 0 .325 0 .623-.004.93a12.68 12.68 0 01-.172 1.854 5.72 5.72 0 01-.541 1.67c-.264.512-.608.98-1.019 1.385a5.412 5.412 0 01-1.403 1.023 5.897 5.897 0 01-1.673.55c-.619.1-1.246.155-1.874.163-.294.006-.601.01-.9.01l-1.087.002-116.975-.002z" fill="#000"/><path d="M24.838 20.56a4.938 4.938 0 012.364-4.152 5.075 5.075 0 00-4.003-2.158c-1.684-.176-3.316 1.005-4.174 1.005-.875 0-2.196-.987-3.619-.958a5.34 5.34 0 00-4.486 2.728c-1.939 3.348-.492 8.27 1.366 10.976.93 1.325 2.015 2.806 3.437 2.753 1.39-.058 1.91-.884 3.59-.884 1.663 0 2.15.884 3.6.85 1.493-.023 2.433-1.33 3.33-2.668a10.952 10.952 0 001.523-3.093 4.791 4.791 0 01-2.128-1.76 4.772 4.772 0 01-.8-2.64zM22.1 12.47a4.863 4.863 0 001.117-3.49A4.976 4.976 0 0020 10.64 4.631 4.631 0 0018.853 14a4.12 4.12 0 003.246-1.53zm20.321 14.929h-4.747l-1.14 3.356h-2.01l4.496-12.418h2.089l4.496 12.418H43.56L42.421 27.4zm-4.255-1.549h3.763l-1.855-5.447h-.052l-1.856 5.447zm17.149.379c0 2.814-1.51 4.621-3.79 4.621a3.085 3.085 0 01-2.856-1.584h-.043v4.484h-1.864V21.702h1.804v1.505h.034a3.215 3.215 0 012.891-1.6c2.305 0 3.824 1.816 3.824 4.622zm-1.916 0c0-1.833-.95-3.038-2.4-3.038-1.423 0-2.38 1.23-2.38 3.038 0 1.824.957 3.046 2.38 3.046 1.45 0 2.4-1.196 2.4-3.046zm11.908 0c0 2.813-1.51 4.621-3.789 4.621a3.085 3.085 0 01-2.856-1.584h-.043v4.484h-1.864V21.702h1.804v1.505h.034a3.216 3.216 0 012.891-1.6c2.304 0 3.823 1.816 3.823 4.622zm-1.915 0c0-1.833-.95-3.038-2.4-3.038-1.423 0-2.381 1.23-2.381 3.038 0 1.824.958 3.046 2.382 3.046 1.449 0 2.399-1.196 2.399-3.046zm8.52 1.067c.138 1.23 1.337 2.04 2.977 2.04 1.57 0 2.7-.81 2.7-1.92 0-.963-.68-1.54-2.295-1.936l-1.614-.388c-2.286-.55-3.348-1.617-3.348-3.347 0-2.143 1.873-3.615 4.531-3.615 2.632 0 4.436 1.472 4.496 3.615h-1.88c-.114-1.24-1.14-1.988-2.642-1.988-1.501 0-2.529.757-2.529 1.859 0 .878.656 1.394 2.262 1.79l1.372.336c2.555.602 3.616 1.626 3.616 3.442 0 2.323-1.856 3.778-4.807 3.778-2.762 0-4.627-1.42-4.747-3.667h1.908zM83.58 19.56v2.142h1.727v1.471H83.58v4.992c0 .775.346 1.136 1.105 1.136.205-.003.41-.018.613-.043v1.463a5.14 5.14 0 01-1.035.086c-1.838 0-2.555-.688-2.555-2.444v-5.19h-1.32v-1.471h1.32v-2.143h1.872zm2.727 6.669c0-2.849 1.682-4.639 4.306-4.639 2.632 0 4.307 1.79 4.307 4.639 0 2.857-1.666 4.639-4.307 4.639-2.64 0-4.306-1.783-4.306-4.639zm6.714 0c0-1.954-.898-3.107-2.408-3.107-1.51 0-2.407 1.162-2.407 3.107 0 1.962.897 3.107 2.407 3.107s2.408-1.145 2.408-3.107zm3.435-4.527h1.778v1.54h.043a2.16 2.16 0 012.183-1.635c.215 0 .429.023.639.07v1.738a2.607 2.607 0 00-.837-.113 1.882 1.882 0 00-1.86 1.286 1.867 1.867 0 00-.082.797v5.37h-1.864v-9.053zm13.235 6.394c-.25 1.644-1.855 2.772-3.909 2.772-2.641 0-4.281-1.765-4.281-4.596 0-2.84 1.649-4.682 4.203-4.682 2.512 0 4.091 1.721 4.091 4.466v.637h-6.412v.112a2.353 2.353 0 001.462 2.392c.311.126.645.185.98.173a2.059 2.059 0 002.097-1.274h1.769zm-6.299-2.702h4.539a2.184 2.184 0 00-.61-1.634 2.194 2.194 0 00-1.617-.664 2.298 2.298 0 00-2.312 2.298zM37.932 8.99a2.654 2.654 0 012.112.818 2.639 2.639 0 01.704 2.147c0 1.906-1.033 3.002-2.816 3.002h-2.16V8.99h2.16zM36.7 14.113h1.129a1.885 1.885 0 001.91-1.322c.082-.266.104-.548.063-.824a1.876 1.876 0 00-1.16-1.999 1.891 1.891 0 00-.813-.135H36.7v4.28zm5.098-1.409a2.128 2.128 0 011.264-2.154 2.145 2.145 0 012.895 1.277c.094.282.128.58.1.877a2.13 2.13 0 01-1.263 2.157 2.144 2.144 0 01-2.898-1.28 2.127 2.127 0 01-.098-.877zm3.342 0c0-.977-.44-1.547-1.211-1.547-.775 0-1.21.57-1.21 1.547 0 .983.435 1.55 1.21 1.55.771 0 1.211-.57 1.211-1.55zm6.578 2.253h-.924l-.934-3.316h-.07l-.93 3.316h-.915L46.7 10.454h.904l.809 3.436h.067l.928-3.436h.855l.928 3.436h.07l.806-3.436h.89l-1.239 4.503zm2.287-4.503h.858v.715h.066a1.349 1.349 0 011.348-.802 1.474 1.474 0 011.512 1.026c.066.21.083.432.05.649v2.915h-.89v-2.692c0-.723-.316-1.083-.975-1.083a1.04 1.04 0 00-1.03.702c-.047.141-.064.29-.048.439v2.634h-.891v-4.503zm5.255-1.758h.89v6.261h-.89v-6.26zm2.13 4.008a2.128 2.128 0 011.264-2.154 2.144 2.144 0 012.895 1.277c.094.282.128.58.1.877a2.128 2.128 0 01-1.263 2.157 2.145 2.145 0 01-2.451-.517 2.132 2.132 0 01-.545-1.64zm3.342 0c0-.976-.44-1.547-1.211-1.547-.775 0-1.21.57-1.21 1.547 0 .984.435 1.55 1.21 1.55.771 0 1.211-.57 1.211-1.55zm1.855.98c0-.811.605-1.278 1.68-1.345l1.223-.07v-.389c0-.475-.315-.744-.924-.744-.498 0-.843.182-.942.5h-.862c.09-.773.82-1.269 1.845-1.269 1.132 0 1.77.562 1.77 1.513v3.077h-.858v-.633h-.07a1.518 1.518 0 01-1.356.707 1.367 1.367 0 01-1.386-.796 1.356 1.356 0 01-.12-.551zm2.903-.385v-.377l-1.103.07c-.622.042-.904.253-.904.65 0 .405.353.641.838.641a1.068 1.068 0 001.057-.576 1.08 1.08 0 00.112-.408zm2.059-.595c0-1.423.733-2.325 1.874-2.325a1.491 1.491 0 011.385.79h.066V8.696h.891v6.261h-.854v-.711h-.07a1.565 1.565 0 01-1.418.785c-1.149 0-1.874-.901-1.874-2.327zm.92 0c0 .955.452 1.53 1.207 1.53.75 0 1.215-.584 1.215-1.527 0-.938-.47-1.53-1.215-1.53-.75 0-1.207.58-1.207 1.527zm6.983 0a2.128 2.128 0 011.264-2.154 2.144 2.144 0 012.896 1.277c.094.282.128.58.1.877a2.128 2.128 0 01-1.264 2.157 2.143 2.143 0 01-2.897-1.28 2.128 2.128 0 01-.099-.877zm3.343 0c0-.977-.44-1.547-1.212-1.547-.774 0-1.21.57-1.21 1.547 0 .983.436 1.55 1.21 1.55.772 0 1.212-.57 1.212-1.55zm2.112-2.25h.858v.715h.067a1.35 1.35 0 011.347-.802 1.473 1.473 0 011.513 1.026c.065.21.082.432.05.649v2.915h-.891v-2.692c0-.723-.315-1.083-.975-1.083a1.039 1.039 0 00-1.03.702 1.03 1.03 0 00-.048.439v2.634h-.89v-4.503zm8.871-1.121v1.142h.978v.748h-.978v2.316c0 .471.195.678.638.678.114 0 .227-.007.34-.02v.74c-.16.028-.322.043-.485.045-.99 0-1.386-.348-1.386-1.216v-2.543h-.716v-.748h.716V9.333h.893zm2.195-.637h.884v2.482h.07a1.387 1.387 0 011.377-.807 1.49 1.49 0 011.5 1.034c.065.208.084.429.055.645v2.907h-.892v-2.688c0-.72-.336-1.084-.966-1.084a1.057 1.057 0 00-1.078.692 1.05 1.05 0 00-.058.45v2.63h-.892v-6.26zm9.082 5.045a1.835 1.835 0 01-1.956 1.303 2.06 2.06 0 01-1.583-.68 2.05 2.05 0 01-.503-1.644 2.077 2.077 0 012.082-2.353c1.256 0 2.014.856 2.014 2.27v.31h-3.188v.05a1.174 1.174 0 00.315.91 1.189 1.189 0 00.887.38 1.088 1.088 0 001.074-.546h.858zm-3.134-1.45h2.28a1.072 1.072 0 00-.296-.83 1.097 1.097 0 00-.815-.337 1.16 1.16 0 00-1.084.717 1.132 1.132 0 00-.085.45z" fill="#fff"/></svg>