<svg width="36" height="29" fill="none" xmlns="http://www.w3.org/2000/svg"><path fill-rule="evenodd" clip-rule="evenodd" d="M25.33 28.195l-1.143-.685-.496-.432c-1.786-1.494-3.738-4.357-3.218-9.802.304-4.258 2.576-10.632 11.666-16.84A2.63 2.63 0 0133.596 0c.707 0 1.408.274 1.879.81.805.908.613 2.22-.422 2.925-7.408 5.05-9.429 10.001-9.787 13.396a7.903 7.903 0 013.508-.83c3.988 0 7.226 2.843 7.226 6.35C36 26.157 32.767 29 28.774 29c-.903 0-1.732-.195-2.522-.469l.025.05-.834-.336-.074-.025-.04-.025zM3.814 27.51l-.5-.431c-1.797-1.494-3.75-4.359-3.23-9.803C.395 13.018 2.661 6.644 11.756.436A2.63 2.63 0 0113.213 0c.707 0 1.408.274 1.88.81.804.908.618 2.22-.422 2.925-7.408 5.05-9.43 10.001-9.783 13.396a7.903 7.903 0 013.508-.83c3.998 0 7.226 2.843 7.226 6.35 0 3.506-3.228 6.349-7.216 6.349-.903 0-1.737-.195-2.527-.469l.025.05-.834-.336-.079-.025-.039-.025-1.138-.685z" fill="#D7E0FF"/></svg>