<svg width="48" height="48" fill="none" xmlns="http://www.w3.org/2000/svg"><path d="M24 32c-4.42 0-8-3.58-8-8s3.58-8 8-8 8 3.58 8 8-3.58 8-8 8zm0-12c-2.2 0-4 1.8-4 4s1.8 4 4 4 4-1.8 4-4-1.8-4-4-4zm3 24h-5.92c-.86 0-1.62-.56-1.9-1.36l-1.28-3.82-3.62 1.8c-.76.38-1.7.24-2.3-.38l-4.2-4.18c-.62-.6-.76-1.54-.38-2.32l1.8-3.58-3.84-1.28A1.957 1.957 0 014 27v-5.92c0-.86.56-1.62 1.36-1.9l3.82-1.28-1.8-3.62c-.4-.76-.24-1.68.36-2.3l4.18-4.2c.62-.62 1.54-.76 2.32-.38l3.58 1.8 1.28-3.84A2 2 0 0121 4h5.92c.86 0 1.62.56 1.9 1.36l1.28 3.82 3.62-1.8c.76-.38 1.7-.24 2.3.38l4.2 4.18c.62.6.76 1.54.38 2.32l-1.8 3.58 3.84 1.28c.82.26 1.36 1.02 1.36 1.88v5.92c0 .86-.56 1.62-1.36 1.9l-3.82 1.28 1.8 3.62c.38.76.24 1.7-.38 2.3l-4.18 4.2c-.6.62-1.54.76-2.32.38l-3.58-1.8-1.28 3.84C28.62 43.46 27.86 44 27 44zm-4.48-4h3.04l.84-2.48a3.98 3.98 0 012.26-2.42 4.01 4.01 0 013.32.12l2.28 1.14 2.14-2.16-1.16-2.34a4.01 4.01 0 01-.12-3.32c.44-1.08 1.32-1.9 2.42-2.26l2.46-.8v-3.04l-2.48-.84a3.98 3.98 0 01-2.42-2.26 4.01 4.01 0 01.12-3.32l1.14-2.3-2.16-2.12-2.34 1.16a4.01 4.01 0 01-3.32.12 3.975 3.975 0 01-2.26-2.42L25.48 8h-3.04l-.84 2.48a3.98 3.98 0 01-2.26 2.42c-1.08.44-2.28.4-3.32-.12l-2.28-1.14-2.14 2.16 1.16 2.34c.52 1.04.56 2.24.12 3.32a3.975 3.975 0 01-2.42 2.26l-2.46.8v3.04l2.48.82c1.1.36 1.98 1.2 2.42 2.26.44 1.08.4 2.28-.12 3.32l-1.14 2.28 2.16 2.16 2.34-1.16a4.01 4.01 0 013.32-.12c1.08.44 1.9 1.32 2.26 2.42l.8 2.46z" fill="#FF5762"/></svg>